P3 3 3 255
255 64 64
255 66 63
0 0 0
253 70 61
0 0 0
251 74 59
0 0 0
249 78 57
248 80 56
