P3 7 7 255
48 96 240
255 66 63
241 94 49
253 70 61
38 230 116
251 74 59
168 204 12
182 5 197
33 225 126
118 37 229
246 84 54
26 218 140
120 36 228
204 168 12
8 200 176
9 174 201
240 96 48
124 226 34
238 100 46
221 134 29
182 197 5
76 58 250
241 49 94
17 209 158
23 146 215
100 238 46
204 168 12
229 118 37
70 253 61
227 122 35
226 124 34
19 211 154
230 38 116
20 212 152
222 132 30
221 134 29
40 232 112
219 138 27
218 140 26
14 206 164
9 201 174
57 249 78
214 148 22
42 234 108
55 247 82
102 45 237
210 156 18
72 252 60
224 128 32
